<svg width="123.5" height="121" xmlns="http://www.w3.org/2000/svg">

 <g label="Layer 1" id="imagebot_2">
  <g label="Layer 1" transform="translate(-1) matrix(0.47964, 0, 0, 0.48559, -148.475, -26.9964)" id="imagebot_3">
   <rect stroke="#007a00" stroke-width="7.8913" fill="none" x="48.944" y="55.595" width="249.03" height="249.25" ry="18.045" id="imagebot_19"/>
   <path fill="#008000" transform="matrix(.78879 0 0 .78947 -47.401 -114.31)" d="M374.29,366.65C374.29,418.723 332.077,460.936 280.004,460.936S185.718,418.723 185.718,366.65S227.931,272.364 280.004,272.364S374.29,314.577 374.29,366.65z" id="imagebot_18"/>
   <g fill="#008000" transform="matrix(.99957 0 0 1.0004 -3.6971 -5.1759)" id="imagebot_14">
    <path fill="#008000" d="M142.53,294.57C141.3221,292.0069 140.1289,289.3407 138.9505,286.5713C137.7721,283.802 136.6525,281.0621 135.5919,278.3517S133.5444,273.0487 132.6311,270.574C131.74727,268.0993 130.9813,265.8897 130.3331,263.9453L137.934,263.9453C138.52321,265.713 139.1566,267.6279 139.8342,269.6902C140.54125,271.723 141.2483,273.7558 141.9554,275.7886C142.69191,277.8214 143.399,279.7658 144.0766,281.6219C144.75419,283.4779 145.3876,285.0836 145.9768,286.4388C146.53655,285.0836 147.1552,283.478 147.8328,281.6219C148.53984,279.7659 149.2469,277.8215 149.954,275.7886C150.6905,273.7558 151.3976,271.723 152.0752,269.6902C152.78224,267.628 153.4304,265.713 154.0196,263.9453L161.3554,263.9453C160.67777,265.8897 159.8971,268.0993 159.0133,270.574C158.12944,273.0488 157.1572,275.6413 156.0967,278.3517C155.0361,281.0621 153.9166,283.802 152.7381,286.5713S150.3665,292.0069 149.1586,294.57L142.5299,294.57" id="imagebot_17"/>
    <path fill="#008000" d="M165.36,294.57L165.36,263.945L186.042,263.945L186.042,269.7341L172.254,269.7341L172.254,275.7441L184.495,275.7441L184.495,281.4006L172.254,281.4006L172.254,288.7806L187.058,288.7806L187.058,294.5697L165.36,294.5697" id="imagebot_16"/>
    <path fill="#008000" d="M207.06,269.24C203.8487,269.24002 201.5213,270.13858 200.0778,271.9357C198.6637,273.7034 197.9566,276.1339 197.9566,279.2273C197.95659,280.7298 198.13336,282.0998 198.4869,283.3371C198.84042,284.545 199.37072,285.5909 200.0778,286.4747C200.78485,287.35854 201.6687,288.0509 202.7293,288.5517C203.7899,289.02308 205.0272,289.25877 206.4414,289.25876C207.20737,289.25877 207.8555,289.24406 208.3858,289.21456C208.94554,289.18516 209.4316,289.12616 209.8441,289.0378L209.8441,278.3878L216.738,278.3878L216.738,293.5458C215.91306,293.86988 214.5873,294.20868 212.7608,294.5622C210.9342,294.94519 208.6804,295.13669 205.9995,295.13669C203.7015,295.13669 201.6098,294.78316 199.7243,294.07609C197.8683,293.36903 196.2774,292.33789 194.9516,290.98269S192.5947,287.96299 191.8582,285.98909C191.15113,284.01519 190.7976,281.76149 190.7976,279.22779C190.7976,276.66469 191.19533,274.39619 191.9908,272.42229C192.78625,270.44839 193.8763,268.78389 195.261,267.42869C196.6457,266.04409 198.266,264.99819 200.1221,264.29109C202.0076,263.58406 204.0109,263.23049 206.1321,263.23049C207.5757,263.23052 208.8719,263.33363 210.0209,263.53983C211.1993,263.71663 212.201,263.93758 213.0259,264.2027C213.88025,264.43842 214.5726,264.68884 215.1029,264.95396C215.66263,265.21913 216.06036,265.42536 216.2961,265.57264L214.3075,271.09654C213.36472,270.59573 212.2747,270.16854 211.0373,269.81494C209.8294,269.43197 208.5036,269.24047 207.0601,269.24045" id="imagebot_15"/>
   </g>
   <rect stroke="#d40000" stroke-width="7.8913" fill="none" x="314.88" y="55.595" width="249.03" height="249.25" ry="18.045" id="imagebot_13"/>
   <path fill="#d40000" transform="matrix(.78879 0 0 .78947 218.53 -114.31)" d="M374.29,366.65C374.29,418.723 332.077,460.936 280.004,460.936S185.718,418.723 185.718,366.65S227.931,272.364 280.004,272.364S374.29,314.577 374.29,366.65z" id="imagebot_12"/>
  </g>
 </g>
</svg>
