<svg version="1.1" xmlns="http://www.w3.org/2000/svg" xmlns:xlink="http://www.w3.org/1999/xlink" x="0px" y="0px" viewBox="0 0 1000 1000" enable-background="new 0 0 1000 1000" xml:space="preserve">
<metadata> Svg Vector Icons : http://www.onlinewebfonts.com/icon </metadata>
<g><g transform="translate(0.000000,511.000000) scale(0.100000,-0.100000)"><path d="M1755.8,4965.1c-10.2-26.5-87.8-202.1-173.5-392c-85.8-187.8-155.2-347.1-155.2-351.2c0-4.1,426.7-8.2,947.3-8.2s1039.2-10.2,1153.5-20.4c488-51,835-202.1,1108.6-481.8c220.5-226.6,343-420.6,445.1-700.3l61.3-165.4l-1686.4-4.1l-1684.4-6.1l-171.5-387.9c-96-212.3-173.5-387.9-173.5-392c0-4.1,851.4-6.1,1890.6-6.1h1892.6l-14.3-153.1c-8.2-85.8-36.8-234.8-65.3-332.8c-167.4-573.7-563.5-920.8-1223-1067.8c-191.9-42.9-261.3-44.9-1249.5-53.1l-1047.4-10.2v-539v-539h822.8c451.2,0,900.4-10.2,994.3-20.4c516.5-63.3,877.9-240.9,1159.7-569.6c292-336.9,418.5-563.5,1241.3-2211.1L6500.6-4790H7207h706.4l-49,98c-28.6,53.1-369.5,735-761.5,1514.9C6204.6-1386.5,6012.7-1061.9,5594.1-643.4c-177.6,179.7-434.9,363.4-563.5,406.3c-38.8,12.2-71.5,30.6-71.5,38.8c0,8.2,51,30.6,114.3,51c61.2,18.4,210.3,85.7,330.8,145c704.4,355.2,1112.7,1004.5,1198.5,1913l14.3,138.8l806.4,4.1l808.5,6.1l171.5,377.7c91.9,208.3,169.5,383.8,169.5,394c0,8.2-453.3,14.3-1008.6,14.3H6557.8l-24.5,128.6c-38.8,198-159.2,539-253.2,714.6c-47,89.8-147,238.9-222.5,334.8c-77.6,93.9-138.8,175.6-138.8,179.7c0,6.1,520.6,12.3,1155.6,14.3l1157.6,6.1l159.3,355.2c87.8,194,165.4,371.6,171.5,392c12.2,38.8-61.3,38.8-3389.2,38.8H1774.2L1755.8,4965.1z"/></g></g>
</svg>